<svg xmlns="http://www.w3.org/2000/svg" viewBox="0 0 24 24" width="32" height="32">
  <rect width="24" height="24" rx="6" fill="#0b0c11"/>
  <g transform="translate(12 12) scale(0.82) translate(-12 -12)">
    <path d="M12 3 L14.4 5.4 L12 7.8 L9.6 5.4 Z M12 16.2 L14.4 18.6 L12 21 L9.6 18.6 Z M5.4 9.6 L7.8 12 L5.4 14.4 L3 12 Z M18.6 9.6 L21 12 L18.6 14.4 L16.2 12 Z M6.7 4.8 L8.6 6.7 L6.7 8.6 L4.8 6.7 Z M17.3 4.8 L19.2 6.7 L17.3 8.6 L15.4 6.7 Z M6.7 15.4 L8.6 17.3 L6.7 19.2 L4.8 17.3 Z M17.3 15.4 L19.2 17.3 L17.3 19.2 L15.4 17.3 Z"
          fill="none" stroke="#c9a24a" stroke-width="1.2" stroke-linejoin="round"/>
    <path d="M12 9.6 L14.4 12 L12 14.4 L9.6 12 Z" fill="#e6cd8e"/>
  </g>
</svg>
